<svg width="21" height="25" viewBox="0 0 21 25" fill="none" xmlns="http://www.w3.org/2000/svg">
<path d="M8.01864 6.68627C8.01864 6.68627 7.1608 6.29412 5.28917 6.29412C2.94962 6.29412 1 7.86275 1 9.43137C1 11 3.14458 11.9804 5.28917 11.9804C5.28917 11.9804 3.33955 11.4706 3.33955 10.2157C3.33955 8.64706 6.26398 7.07843 8.01864 6.68627Z" fill="#010101"/>
<path d="M5.28917 11.9804C5.28917 13.549 7.95365 15.3791 9.38337 16.098C9.38337 16.098 7.62871 15.0546 7.62871 13.7451C7.62871 13.4839 7.71998 13.2373 7.88412 13.0051C8.38842 12.2918 9.58062 11.7153 10.9273 11.2756C11.9507 10.9414 13.0633 10.6863 14.031 10.5101C15.1094 10.3138 16.0078 10.2157 16.402 10.2157C17.7667 10.2157 18.3516 10.4118 18.7416 11.1961C22.1537 8.45074 17.8491 7.27451 15.0373 7.27451C13.9526 7.27451 12.9181 7.37555 11.9545 7.55269C10.8093 7.76325 9.76412 8.08133 8.85377 8.46508C6.53772 9.44142 5.28917 10.8429 5.28917 11.9804Z" fill="#010101"/>
<path d="M14.0625 1L10.9431 1.58824L8.85377 8.46508C9.76412 8.08133 10.8093 7.76325 11.9545 7.55269L14.0625 1Z" fill="#010101"/>
<path d="M10.9273 11.2756L10.4479 13.6859L10.2345 14.7594L8.99345 21L12.8541 12.9608L13.7957 11L14.031 10.5101C13.0633 10.6863 11.9507 10.9414 10.9273 11.2756Z" fill="#010101"/>
<path d="M12.8541 12.9608C14.2317 12.8301 16.9869 12.4118 16.9869 11.7843C16.9869 11.1569 14.8594 11 13.7957 11L12.8541 12.9608Z" fill="#010101"/>
<path d="M7.88412 13.0051C7.71998 13.2373 7.62871 13.4839 7.62871 13.7451C7.88866 14.0065 8.77374 14.5754 10.2345 14.7594L10.4479 13.6859C8.64809 13.4818 7.98879 13.147 7.88412 13.0051Z" fill="#010101"/>
<path d="M5.28917 11.9804C3.14458 11.9804 1 11 1 9.43137C1 7.86275 2.94962 6.29412 5.28917 6.29412C7.1608 6.29412 8.01864 6.68627 8.01864 6.68627C6.26398 7.07843 3.33955 8.64706 3.33955 10.2157C3.33955 11.4706 5.28917 11.9804 5.28917 11.9804ZM5.28917 11.9804C5.28917 13.549 7.95365 15.3791 9.38337 16.098C9.38337 16.098 7.62871 15.0546 7.62871 13.7451M5.28917 11.9804C5.28917 10.8429 6.53772 9.44142 8.85377 8.46508M7.62871 13.7451C7.62871 13.4839 7.71998 13.2373 7.88412 13.0051M7.62871 13.7451C7.88866 14.0065 8.77374 14.5754 10.2345 14.7594M11.9545 7.55269C12.9181 7.37555 13.9526 7.27451 15.0373 7.27451C17.8491 7.27451 22.1537 8.45074 18.7416 11.1961C18.3516 10.4118 17.7667 10.2157 16.402 10.2157C16.0078 10.2157 15.1094 10.3138 14.031 10.5101M11.9545 7.55269C10.8093 7.76325 9.76412 8.08133 8.85377 8.46508M11.9545 7.55269L14.0625 1L10.9431 1.58824L8.85377 8.46508M10.9273 11.2756C11.9507 10.9414 13.0633 10.6863 14.031 10.5101M10.9273 11.2756C9.58062 11.7153 8.38843 12.2918 7.88412 13.0051M10.9273 11.2756L10.4479 13.6859M14.031 10.5101L13.7957 11M12.8541 12.9608L8.99345 21L10.2345 14.7594M12.8541 12.9608C14.2317 12.8301 16.9869 12.4118 16.9869 11.7843C16.9869 11.1569 14.8594 11 13.7957 11M12.8541 12.9608L13.7957 11M7.88412 13.0051C7.98879 13.147 8.64809 13.4818 10.4479 13.6859M10.4479 13.6859L10.2345 14.7594" stroke="white" stroke-miterlimit="11.4737"/>
</svg>
