<svg width="371" height="56" viewBox="0 0 371 56" fill="none" xmlns="http://www.w3.org/2000/svg">
<path d="M13.2239 29.6667C9.61193 29.6667 6 28 6 25.3333C6 22.6667 9.28357 20 13.2239 20C16.3761 20 17.8209 20.6667 17.8209 20.6667C14.8656 21.3333 9.94029 24 9.94029 26.6667C9.94029 28.8 13.2239 29.6667 13.2239 29.6667ZM13.2239 29.6667C13.2239 32.3333 17.7114 35.4444 20.1194 36.6667C20.1194 36.6667 17.1641 34.8928 17.1641 32.6667M13.2239 29.6667C13.2239 27.7329 15.3267 25.3504 19.2274 23.6906M17.1641 32.6667C17.1641 32.2227 17.3179 31.8034 17.5943 31.4087M17.1641 32.6667C17.602 33.1111 19.0926 34.0782 21.5528 34.391M24.4498 22.1396C26.0726 21.8384 27.8149 21.6667 29.6417 21.6667C34.3775 21.6667 41.6273 23.6663 35.8805 28.3333C35.2238 27 34.2387 26.6667 31.9402 26.6667C31.2763 26.6667 29.7632 26.8335 27.9469 27.1672M24.4498 22.1396C22.5209 22.4975 20.7606 23.0383 19.2274 23.6906M24.4498 22.1396L27.9999 11L22.7462 12L19.2274 23.6906M22.7196 28.4685C24.4432 27.9004 26.3171 27.4666 27.9469 27.1672M22.7196 28.4685C20.4516 29.216 18.4437 30.196 17.5943 31.4087M22.7196 28.4685L21.9123 32.5661M27.9469 27.1672L27.5507 28M25.9648 31.3333L19.4626 45L21.5528 34.391M25.9648 31.3333C28.285 31.1111 32.9253 30.4 32.9253 29.3333C32.9253 28.2667 29.3422 28 27.5507 28M25.9648 31.3333L27.5507 28M17.5943 31.4087C17.7706 31.6499 18.881 32.219 21.9123 32.5661M21.9123 32.5661L21.5528 34.391" stroke="#010101" stroke-miterlimit="11.4737"/>
<path d="M55.8 43V15.08H59.16V40.08H72.4V43H55.8ZM81.5044 19.36H81.2244V43H78.1844V15.08H82.9444L92.4644 38.48H92.7444V15.08H95.7844V43H91.0244L81.5044 19.36ZM105.169 32.52V29.16H116.769V32.52H105.169ZM132.673 43L124.393 15.08H127.953L131.913 29.04L134.913 39.6H135.113L138.113 29.04L142.073 15.08H145.513L137.233 43H132.673ZM158.938 43.48C157.231 43.48 155.764 43.16 154.538 42.52C153.311 41.8533 152.298 40.9067 151.498 39.68C150.698 38.4533 150.111 36.9467 149.738 35.16C149.364 33.3733 149.178 31.3333 149.178 29.04C149.178 26.7733 149.364 24.7467 149.738 22.96C150.111 21.1467 150.698 19.6267 151.498 18.4C152.298 17.1733 153.311 16.24 154.538 15.6C155.764 14.9333 157.231 14.6 158.938 14.6C160.644 14.6 162.111 14.9333 163.338 15.6C164.564 16.24 165.578 17.1733 166.378 18.4C167.178 19.6267 167.764 21.1467 168.138 22.96C168.511 24.7467 168.698 26.7733 168.698 29.04C168.698 31.3333 168.511 33.3733 168.138 35.16C167.764 36.9467 167.178 38.4533 166.378 39.68C165.578 40.9067 164.564 41.8533 163.338 42.52C162.111 43.16 160.644 43.48 158.938 43.48ZM158.938 40.56C160.058 40.56 161.004 40.3467 161.778 39.92C162.551 39.4667 163.191 38.84 163.698 38.04C164.204 37.24 164.564 36.28 164.778 35.16C165.018 34.0133 165.138 32.7333 165.138 31.32V26.76C165.138 25.3733 165.018 24.1067 164.778 22.96C164.564 21.8133 164.204 20.84 163.698 20.04C163.191 19.24 162.551 18.6267 161.778 18.2C161.004 17.7467 160.058 17.52 158.938 17.52C157.818 17.52 156.871 17.7467 156.098 18.2C155.324 18.6267 154.684 19.24 154.178 20.04C153.671 20.84 153.298 21.8133 153.058 22.96C152.844 24.1067 152.738 25.3733 152.738 26.76V31.32C152.738 32.7333 152.844 34.0133 153.058 35.16C153.298 36.28 153.671 37.24 154.178 38.04C154.684 38.84 155.324 39.4667 156.098 39.92C156.871 40.3467 157.818 40.56 158.938 40.56ZM177.882 43H174.522V15.08H184.682C187.269 15.08 189.242 15.7867 190.602 17.2C191.962 18.6133 192.642 20.5867 192.642 23.12C192.642 25.3867 192.055 27.2 190.882 28.56C189.709 29.92 188.002 30.7067 185.762 30.92L192.882 43H189.122L182.322 31.08H177.882V43ZM184.602 28.24C186.015 28.24 187.109 27.8933 187.882 27.2C188.682 26.48 189.082 25.4667 189.082 24.16V22.08C189.082 20.7733 188.682 19.7733 187.882 19.08C187.109 18.36 186.015 18 184.602 18H177.882V28.24H184.602ZM208.586 18V43H205.226V18H195.906V15.08H217.906V18H208.586ZM222.491 43V15.08H239.691V18H225.851V27.4H239.211V30.32H225.851V40.08H239.691V43H222.491ZM265.875 43H262.075L258.755 37.44L255.075 31.36H254.915L251.115 37.44L247.595 43H243.915L253.035 28.76L244.435 15.08H248.235L251.475 20.48L254.955 26.12H255.115L258.555 20.48L261.915 15.08H265.595L256.955 28.72L265.875 43ZM273.059 32.52V29.16H284.659V32.52H273.059ZM308.604 39.28H308.404C308.164 39.8133 307.884 40.3333 307.564 40.84C307.244 41.3467 306.83 41.8 306.324 42.2C305.844 42.5733 305.257 42.88 304.564 43.12C303.87 43.36 303.044 43.48 302.084 43.48C299.044 43.48 296.777 42.2533 295.284 39.8C293.817 37.3467 293.084 33.8267 293.084 29.24C293.084 24.44 293.897 20.8 295.524 18.32C297.15 15.84 299.657 14.6 303.044 14.6C304.35 14.6 305.484 14.7733 306.444 15.12C307.404 15.4667 308.217 15.9333 308.884 16.52C309.577 17.1067 310.15 17.7733 310.604 18.52C311.057 19.24 311.43 19.9733 311.724 20.72L308.844 22.04C308.604 21.4267 308.324 20.8533 308.004 20.32C307.71 19.76 307.337 19.28 306.884 18.88C306.457 18.4533 305.937 18.12 305.324 17.88C304.71 17.64 303.99 17.52 303.164 17.52C300.924 17.52 299.27 18.36 298.204 20.04C297.164 21.72 296.644 23.96 296.644 26.76V31.08C296.644 32.4933 296.75 33.7867 296.964 34.96C297.177 36.1067 297.524 37.1067 298.004 37.96C298.51 38.8133 299.15 39.48 299.924 39.96C300.724 40.4133 301.697 40.64 302.844 40.64C304.657 40.64 306.07 40.0933 307.084 39C308.097 37.9067 308.604 36.4933 308.604 34.76V31.88H302.724V29.2H311.724V43H308.604V39.28ZM321.388 15.08V31.84C321.388 33.2 321.428 34.4133 321.508 35.48C321.588 36.5467 321.801 37.4667 322.148 38.24C322.495 38.9867 323.028 39.56 323.748 39.96C324.495 40.36 325.521 40.56 326.828 40.56C328.135 40.56 329.148 40.36 329.868 39.96C330.615 39.56 331.161 38.9867 331.508 38.24C331.855 37.4667 332.068 36.5467 332.148 35.48C332.228 34.4133 332.268 33.2 332.268 31.84V15.08H335.628V31.04C335.628 33.12 335.521 34.9333 335.308 36.48C335.121 38.0267 334.708 39.32 334.068 40.36C333.455 41.4 332.561 42.1867 331.388 42.72C330.241 43.2267 328.721 43.48 326.828 43.48C324.935 43.48 323.401 43.2267 322.228 42.72C321.081 42.1867 320.188 41.4 319.548 40.36C318.935 39.32 318.521 38.0267 318.308 36.48C318.121 34.9333 318.028 33.12 318.028 31.04V15.08H321.388ZM342.173 43V40.32H349.133V17.76H342.173V15.08H359.453V17.76H352.493V40.32H359.453V43H342.173Z" fill="#010101"/>
</svg>
