<svg width="299" height="50" viewBox="0 0 299 50" fill="none" xmlns="http://www.w3.org/2000/svg">
<path d="M13.2239 26.6667C9.61193 26.6667 6 25 6 22.3333C6 19.6667 9.28357 17 13.2239 17C16.3761 17 17.8209 17.6667 17.8209 17.6667C14.8656 18.3333 9.94029 21 9.94029 23.6667C9.94029 25.8 13.2239 26.6667 13.2239 26.6667ZM13.2239 26.6667C13.2239 29.3333 17.7114 32.4444 20.1194 33.6667C20.1194 33.6667 17.1641 31.8928 17.1641 29.6667M13.2239 26.6667C13.2239 24.7329 15.3267 22.3504 19.2274 20.6906M17.1641 29.6667C17.1641 29.2227 17.3179 28.8034 17.5943 28.4087M17.1641 29.6667C17.602 30.1111 19.0926 31.0782 21.5528 31.391M24.4498 19.1396C26.0726 18.8384 27.8149 18.6667 29.6417 18.6667C34.3775 18.6667 41.6273 20.6663 35.8805 25.3333C35.2238 24 34.2387 23.6667 31.9402 23.6667C31.2763 23.6667 29.7632 23.8335 27.9469 24.1672M24.4498 19.1396C22.5209 19.4975 20.7606 20.0383 19.2274 20.6906M24.4498 19.1396L27.9999 8L22.7462 9L19.2274 20.6906M22.7196 25.4685C24.4432 24.9004 26.3171 24.4666 27.9469 24.1672M22.7196 25.4685C20.4516 26.216 18.4437 27.196 17.5943 28.4087M22.7196 25.4685L21.9123 29.5661M27.9469 24.1672L27.5507 25M25.9648 28.3333L19.4626 42L21.5528 31.391M25.9648 28.3333C28.285 28.1111 32.9253 27.4 32.9253 26.3333C32.9253 25.2667 29.3422 25 27.5507 25M25.9648 28.3333L27.5507 25M17.5943 28.4087C17.7706 28.6499 18.881 29.219 21.9123 29.5661M21.9123 29.5661L21.5528 31.391" stroke="white" stroke-miterlimit="11.4737"/>
<path d="M58.776 37L52.152 14.664H55L58.168 25.832L60.568 34.28H60.728L63.128 25.832L66.296 14.664H69.048L62.424 37H58.776ZM79.7875 37.384C78.4222 37.384 77.2488 37.128 76.2675 36.616C75.2862 36.0827 74.4755 35.3253 73.8355 34.344C73.1955 33.3627 72.7262 32.1573 72.4275 30.728C72.1288 29.2987 71.9795 27.6667 71.9795 25.832C71.9795 24.0187 72.1288 22.3973 72.4275 20.968C72.7262 19.5173 73.1955 18.3013 73.8355 17.32C74.4755 16.3387 75.2862 15.592 76.2675 15.08C77.2488 14.5467 78.4222 14.28 79.7875 14.28C81.1528 14.28 82.3262 14.5467 83.3075 15.08C84.2888 15.592 85.0995 16.3387 85.7395 17.32C86.3795 18.3013 86.8488 19.5173 87.1475 20.968C87.4462 22.3973 87.5955 24.0187 87.5955 25.832C87.5955 27.6667 87.4462 29.2987 87.1475 30.728C86.8488 32.1573 86.3795 33.3627 85.7395 34.344C85.0995 35.3253 84.2888 36.0827 83.3075 36.616C82.3262 37.128 81.1528 37.384 79.7875 37.384ZM79.7875 35.048C80.6835 35.048 81.4408 34.8773 82.0595 34.536C82.6782 34.1733 83.1902 33.672 83.5955 33.032C84.0008 32.392 84.2888 31.624 84.4595 30.728C84.6515 29.8107 84.7475 28.7867 84.7475 27.656V24.008C84.7475 22.8987 84.6515 21.8853 84.4595 20.968C84.2888 20.0507 84.0008 19.272 83.5955 18.632C83.1902 17.992 82.6782 17.5013 82.0595 17.16C81.4408 16.7973 80.6835 16.616 79.7875 16.616C78.8915 16.616 78.1342 16.7973 77.5155 17.16C76.8968 17.5013 76.3848 17.992 75.9795 18.632C75.5742 19.272 75.2755 20.0507 75.0835 20.968C74.9128 21.8853 74.8275 22.8987 74.8275 24.008V27.656C74.8275 28.7867 74.9128 29.8107 75.0835 30.728C75.2755 31.624 75.5742 32.392 75.9795 33.032C76.3848 33.672 76.8968 34.1733 77.5155 34.536C78.1342 34.8773 78.8915 35.048 79.7875 35.048ZM94.943 37H92.255V14.664H100.383C102.452 14.664 104.031 15.2293 105.119 16.36C106.207 17.4907 106.751 19.0693 106.751 21.096C106.751 22.9093 106.282 24.36 105.343 25.448C104.404 26.536 103.039 27.1653 101.247 27.336L106.943 37H103.935L98.495 27.464H94.943V37ZM100.319 25.192C101.45 25.192 102.324 24.9147 102.943 24.36C103.583 23.784 103.903 22.9733 103.903 21.928V20.264C103.903 19.2187 103.583 18.4187 102.943 17.864C102.324 17.288 101.45 17 100.319 17H94.943V25.192H100.319ZM119.507 17V37H116.819V17H109.363V14.664H126.963V17H119.507ZM130.63 37V14.664H144.39V17H133.318V24.52H144.006V26.856H133.318V34.664H144.39V37H130.63ZM165.338 37H162.298L159.642 32.552L156.698 27.688H156.57L153.53 32.552L150.714 37H147.77L155.066 25.608L148.186 14.664H151.226L153.818 18.984L156.602 23.496H156.73L159.482 18.984L162.17 14.664H165.114L158.202 25.576L165.338 37ZM199.521 34.024H199.361C199.169 34.4507 198.945 34.8667 198.689 35.272C198.433 35.6773 198.102 36.04 197.697 36.36C197.313 36.6587 196.843 36.904 196.289 37.096C195.734 37.288 195.073 37.384 194.305 37.384C191.873 37.384 190.059 36.4027 188.865 34.44C187.691 32.4773 187.105 29.6613 187.105 25.992C187.105 22.152 187.755 19.24 189.057 17.256C190.358 15.272 192.363 14.28 195.073 14.28C196.118 14.28 197.025 14.4187 197.793 14.696C198.561 14.9733 199.211 15.3467 199.745 15.816C200.299 16.2853 200.758 16.8187 201.121 17.416C201.483 17.992 201.782 18.5787 202.017 19.176L199.713 20.232C199.521 19.7413 199.297 19.2827 199.041 18.856C198.806 18.408 198.507 18.024 198.145 17.704C197.803 17.3627 197.387 17.096 196.897 16.904C196.406 16.712 195.83 16.616 195.169 16.616C193.377 16.616 192.054 17.288 191.201 18.632C190.369 19.976 189.953 21.768 189.953 24.008V27.464C189.953 28.5947 190.038 29.6293 190.209 30.568C190.379 31.4853 190.657 32.2853 191.041 32.968C191.446 33.6507 191.958 34.184 192.577 34.568C193.217 34.9307 193.995 35.112 194.913 35.112C196.363 35.112 197.494 34.6747 198.305 33.8C199.115 32.9253 199.521 31.7947 199.521 30.408V28.104H194.817V25.96H202.017V37H199.521V34.024ZM209.748 14.664V28.072C209.748 29.16 209.78 30.1307 209.844 30.984C209.908 31.8373 210.079 32.5733 210.356 33.192C210.633 33.7893 211.06 34.248 211.636 34.568C212.233 34.888 213.055 35.048 214.1 35.048C215.145 35.048 215.956 34.888 216.532 34.568C217.129 34.248 217.567 33.7893 217.844 33.192C218.121 32.5733 218.292 31.8373 218.356 30.984C218.42 30.1307 218.452 29.16 218.452 28.072V14.664H221.14V27.432C221.14 29.096 221.055 30.5467 220.884 31.784C220.735 33.0213 220.404 34.056 219.892 34.888C219.401 35.72 218.687 36.3493 217.748 36.776C216.831 37.1813 215.615 37.384 214.1 37.384C212.585 37.384 211.359 37.1813 210.42 36.776C209.503 36.3493 208.788 35.72 208.276 34.888C207.785 34.056 207.455 33.0213 207.284 31.784C207.135 30.5467 207.06 29.096 207.06 27.432V14.664H209.748ZM226.376 37V34.856H231.944V16.808H226.376V14.664H240.2V16.808H234.632V34.856H240.2V37H226.376Z" fill="white"/>
</svg>
